<svg xmlns="http://www.w3.org/2000/svg" viewBox="0 0 64 64" role="img" aria-label="GitGraph Painter icon">
  <rect width="64" height="64" rx="16" fill="#FAF7F0"/>
  <rect x="10" y="12" width="44" height="40" rx="10" fill="#F4F0E6" stroke="#A8A59C"/>
  <g>
    <rect x="17" y="19" width="6" height="6" rx="1.5" fill="#EBE6D6"/>
    <rect x="26" y="19" width="6" height="6" rx="1.5" fill="#CBD8C0"/>
    <rect x="35" y="19" width="6" height="6" rx="1.5" fill="#9DBB94"/>
    <rect x="44" y="19" width="6" height="6" rx="1.5" fill="#2D5A3D"/>
    <rect x="17" y="29" width="6" height="6" rx="1.5" fill="#CBD8C0"/>
    <rect x="26" y="29" width="6" height="6" rx="1.5" fill="#5F8A66"/>
    <rect x="35" y="29" width="6" height="6" rx="1.5" fill="#2D5A3D"/>
    <rect x="44" y="29" width="6" height="6" rx="1.5" fill="#9DBB94"/>
    <rect x="17" y="39" width="6" height="6" rx="1.5" fill="#2D5A3D"/>
    <rect x="26" y="39" width="6" height="6" rx="1.5" fill="#9DBB94"/>
    <rect x="35" y="39" width="6" height="6" rx="1.5" fill="#CBD8C0"/>
    <rect x="44" y="39" width="6" height="6" rx="1.5" fill="#EBE6D6"/>
  </g>
</svg>
